<svg width="173" height="42" viewBox="0 0 173 42" fill="none" xmlns="http://www.w3.org/2000/svg">
<path d="M132.99 11.9385C131.846 11.4645 130.647 11.2135 129.392 11.2135H129.337C127.942 11.2414 126.604 11.4924 125.321 12.0222C124.094 12.552 122.979 13.305 122.031 14.2531C121.082 15.2012 120.329 16.3167 119.8 17.5437C119.242 18.8265 118.963 20.1929 118.963 21.5872V21.6151V21.643C118.963 23.0652 119.242 24.4316 119.8 25.7423C120.329 26.9972 121.082 28.1126 122.058 29.0886C123.034 30.0646 124.15 30.8176 125.405 31.3474C126.688 31.9051 128.082 32.184 129.504 32.2119H129.532H129.56H129.588H129.616C131.177 32.184 132.683 31.8494 134.077 31.1801C135.388 30.5387 136.531 29.6464 137.507 28.5309L134.886 26.4394C134.245 27.1924 133.464 27.778 132.599 28.2242C131.651 28.6982 130.647 28.9492 129.588 28.9492C128.779 28.9492 127.97 28.8098 127.217 28.5309C126.492 28.2799 125.795 27.8895 125.182 27.4155C124.568 26.9414 124.038 26.3558 123.62 25.7144C123.174 25.073 122.867 24.348 122.644 23.595L122.616 23.4556H138.734L138.762 20.5833C138.762 19.3284 138.511 18.1014 138.037 16.9581C137.563 15.8426 136.894 14.8387 136.029 14.0021C135.081 13.0819 134.105 12.4126 132.99 11.9385ZM122.477 20.0814L122.505 19.9419C122.7 19.189 122.979 18.4639 123.397 17.8226C123.815 17.1812 124.317 16.6234 124.903 16.1494C125.516 15.6753 126.186 15.2849 126.883 15.0339C127.636 14.7829 128.416 14.6435 129.197 14.6435C130.675 14.6435 132.097 15.2012 133.185 16.1773C134.273 17.1533 134.942 18.5197 135.081 19.9698V20.0814H122.477Z" fill="white"/>
<path d="M94.674 11.2134C88.9016 11.2134 84.2167 15.8704 84.1609 21.615V41.9999H87.7025V28.9491C89.4593 30.8175 91.8854 32.0166 94.6183 32.2118C94.6461 32.2118 94.674 32.2118 94.7019 32.2118C100.502 32.2118 105.215 27.499 105.215 21.6987C105.215 16.1772 100.948 11.6596 95.5385 11.2134C95.5106 11.2134 95.3433 11.1855 95.3154 11.1855C95.0644 11.2134 94.8692 11.2134 94.674 11.2134ZM101.59 22.0054C101.59 25.8259 98.4945 28.9212 94.674 28.9212C90.8536 28.9212 87.7582 25.8259 87.7582 22.0054C87.7582 21.9218 87.7582 21.8102 87.7582 21.7266C87.7582 21.6429 87.7582 21.5593 87.7582 21.4477C87.7582 17.6273 90.8536 14.5319 94.674 14.5319C98.4945 14.5319 101.59 17.6273 101.59 21.4477C101.59 21.5314 101.59 21.6429 101.59 21.7266C101.59 21.8381 101.59 21.9218 101.59 22.0054Z" fill="white"/>
<path d="M47.6298 28.0011V19.4121H58.9795V15.9821H47.6298V7.5883H60.4017V3.99097H44.0325V31.6263H61.4056V28.0011H47.6298Z" fill="white"/>
<path d="M82.5714 11.7712H78.3885L72.7833 19.0496L67.1782 11.7712H62.9952L70.6361 21.6988L62.9952 31.6263H67.1782L72.7833 24.348L78.3885 31.6263H82.5714L74.9306 21.6988L82.5714 11.7712Z" fill="white"/>
<path d="M153.765 21.6988C153.18 21.2526 152.482 20.8901 151.674 20.6112C150.865 20.3323 150.028 20.1092 149.164 19.9419C148.523 19.8304 147.881 19.6909 147.268 19.5236C146.654 19.3563 146.124 19.1611 145.65 18.938C145.176 18.7149 144.814 18.4361 144.535 18.1572C144.256 17.8505 144.116 17.4879 144.116 17.0696C144.116 16.6235 144.228 16.2052 144.479 15.8426C144.73 15.4801 145.037 15.2012 145.399 14.9782C145.762 14.7551 146.18 14.5878 146.654 14.4762C147.128 14.3647 147.574 14.3089 148.048 14.3089C148.132 14.3089 148.216 14.3089 148.299 14.3089C150.028 14.3647 151.562 15.257 152.482 16.5677L155.132 14.783C153.626 12.6357 151.144 11.2414 148.299 11.2414C147.323 11.2414 146.403 11.3808 145.539 11.6318C144.646 11.8828 143.866 12.2453 143.14 12.7473C142.415 13.2213 141.858 13.8348 141.439 14.5878C141.021 15.3407 140.798 16.1773 140.798 17.1533C140.798 18.1851 140.993 19.0217 141.384 19.6631C141.774 20.3044 142.276 20.8622 142.917 21.2526C143.559 21.6709 144.312 22.0055 145.148 22.2565C146.013 22.5075 146.905 22.7306 147.825 22.9258C148.355 23.0373 148.885 23.1767 149.415 23.3162C149.917 23.4556 150.391 23.6508 150.781 23.9018C151.172 24.1528 151.506 24.4316 151.729 24.7663C151.98 25.1009 152.092 25.5471 152.092 26.0769C152.092 26.6068 151.953 27.0808 151.702 27.4712C151.451 27.8616 151.116 28.1684 150.67 28.4194C150.251 28.6703 149.777 28.8655 149.248 28.9771C148.774 29.0886 148.299 29.1444 147.825 29.1444C145.678 29.1444 143.782 28.1126 142.639 26.5231L139.961 28.6146C141.858 30.8176 144.674 32.2119 147.797 32.2119C148.774 32.184 149.694 32.0725 150.614 31.8494C151.562 31.6263 152.427 31.2638 153.18 30.7618C153.932 30.2599 154.546 29.6185 154.992 28.8098C155.438 28.0011 155.689 27.0529 155.689 25.9096C155.689 24.9057 155.522 24.0691 155.187 23.3998C154.825 22.7027 154.351 22.1449 153.765 21.6988Z" fill="white"/>
<path d="M172.365 23.3998C172.031 22.7306 171.557 22.1449 170.943 21.6988C170.358 21.2526 169.66 20.8901 168.852 20.6112C168.043 20.3323 167.206 20.1093 166.342 19.9419C165.701 19.8304 165.059 19.691 164.446 19.5236C163.832 19.3563 163.302 19.1611 162.828 18.938C162.354 18.7149 161.992 18.4361 161.713 18.1572C161.434 17.8505 161.295 17.4879 161.295 17.0696C161.295 16.6235 161.406 16.2052 161.657 15.8426C161.908 15.4801 162.215 15.2013 162.577 14.9782C162.94 14.7551 163.358 14.5878 163.832 14.4762C164.306 14.3647 164.752 14.3089 165.226 14.3089C165.31 14.3089 165.394 14.3089 165.477 14.3089C167.206 14.3647 168.74 15.257 169.66 16.5677L172.31 14.8108C170.804 12.6636 168.322 11.2693 165.477 11.2693C165.45 11.2693 165.45 11.2693 165.422 11.2693C164.474 11.2693 163.581 11.4087 162.689 11.6597C161.796 11.9107 161.016 12.2732 160.291 12.7751C159.566 13.2492 159.008 13.8627 158.59 14.6156C158.171 15.3686 157.948 16.2052 157.948 17.1812C157.948 18.213 158.143 19.0496 158.534 19.691C158.924 20.3323 159.426 20.8901 160.068 21.2805C160.709 21.6988 161.462 22.0334 162.298 22.2844C163.163 22.5354 164.055 22.7584 164.975 22.9537C165.505 23.0652 166.035 23.2046 166.565 23.3441C167.067 23.4835 167.541 23.6787 167.931 23.9297C168.322 24.1807 168.656 24.4595 168.88 24.7942C169.131 25.1288 169.242 25.575 169.242 26.1048C169.242 26.6346 169.103 27.1087 168.852 27.4991C168.601 27.8895 168.266 28.1963 167.82 28.4473C167.402 28.6982 166.928 28.8934 166.398 29.005C165.924 29.1165 165.45 29.1723 164.975 29.1723H164.948C162.828 29.1723 160.96 28.1405 159.789 26.5789L157.112 28.6703C159.008 30.8734 161.824 32.2677 164.948 32.2677C165.924 32.2677 166.844 32.1561 167.764 31.933C168.712 31.71 169.577 31.3474 170.33 30.8455C171.083 30.3435 171.696 29.7021 172.142 28.8934C172.588 28.0847 172.839 27.1366 172.839 25.9933C172.867 24.9057 172.7 24.0691 172.365 23.3998Z" fill="white"/>
<path d="M111.266 11.7154H107.725V21.1968C107.725 21.3362 107.725 21.5035 107.725 21.6708V31.6542H111.266V21.6708C111.266 17.8225 114.39 14.6993 118.21 14.6993V11.1298C115.561 11.1298 113.135 12.1337 111.266 13.779V11.7154Z" fill="white"/>
<path d="M30.4518 3.99097H26.9103V31.6263H30.4518V3.99097Z" fill="white"/>
<path d="M14.2499 3.96307H10.6247L0 31.6263H3.4579L6.02344 24.9894H18.8511L21.3888 31.6263H24.8467L14.2499 3.96307ZM7.41776 21.3362L12.4373 8.22968L17.4568 21.3362H7.41776Z" fill="white"/>
<path d="M38.985 11.8828H35.4435V31.6263H38.985V11.8828Z" fill="white"/>
<path d="M37.2004 0.170532C37.1167 0.170532 37.061 0.226305 37.061 0.33785C37.061 3.18225 34.7464 5.49682 31.9299 5.49682C31.8462 5.49682 31.7626 5.55259 31.7626 5.66414C31.7626 5.7478 31.8183 5.83145 31.9299 5.83145C34.7743 5.83145 37.061 8.14602 37.061 10.9904C37.061 11.0741 37.1167 11.1577 37.2004 11.1577C37.2841 11.1577 37.3398 11.102 37.3398 10.9904C37.3398 8.14602 39.6544 5.83145 42.4709 5.83145C42.5546 5.83145 42.6382 5.77568 42.6382 5.66414C42.6382 5.58048 42.5825 5.49682 42.4709 5.49682C39.6265 5.49682 37.3398 3.18225 37.3398 0.33785C37.3398 0.309964 37.3119 0.254191 37.2841 0.226305C37.2841 0.198419 37.2562 0.170532 37.2004 0.170532Z" fill="white"/>
</svg>
