<svg width="127" height="27" viewBox="0 0 127 27" fill="none" xmlns="http://www.w3.org/2000/svg">
<path d="M52.9747 20.0208H41.98L55.9733 2.24704C56.2798 1.84329 56.382 0.574993 55.9733 0.27218C55.82 0.15442 55.1781 0.27218 54.9738 0.27218H34.9833C33.1953 0.27218 31.9847 1.46807 31.9847 3.23448C31.9847 5.00088 33.1953 7.1842 34.9833 7.1842H43.979L29.9857 24.958C29.6621 25.3617 29.577 26.6132 29.9857 26.9328C30.156 27.0674 30.7809 26.9497 30.9852 26.9328H52.9747C54.7628 26.8487 56.0584 24.7663 55.9733 22.9831C55.8882 21.3345 54.6436 20.1049 52.9747 20.0208ZM123.941 0.27218C122.153 0.27218 120.942 1.46807 120.942 3.23448V14.0962L102.951 0.27218C102.559 -0.047455 102.275 -0.13157 101.951 0.27218C101.815 0.44041 101.951 1.04091 101.951 1.25961V23.9705C101.951 25.737 103.162 26.9328 104.95 26.9328C106.738 26.9328 107.949 25.7538 107.949 23.9705V13.1088L125.94 26.9328C126.349 27.2525 126.616 26.3492 126.939 25.9454C127.076 25.7772 126.939 26.1473 126.939 25.9454V3.23448C126.922 1.45125 125.746 0.27218 123.941 0.27218ZM76.9633 21.0083C69.5217 21.0083 63.9695 16.5743 63.9695 13.1088C63.9695 9.64328 69.5387 6.19677 76.9633 6.19677C84.4049 6.19677 89.9571 9.64328 89.9571 13.1088C89.9571 16.5743 84.422 21.0083 76.9633 21.0083ZM76.9633 0.27218C66.201 0.27218 57.9723 5.50484 57.9723 13.1088C57.9723 20.7128 66.201 26.9328 76.9633 26.9328C87.7256 26.9328 96.9538 20.7128 96.9538 13.1088C96.9538 5.50484 87.7256 0.27218 76.9633 0.27218ZM12.9938 21.0083C8.88983 21.0083 5.99714 17.1631 5.99714 13.1088C5.99714 9.05447 8.88983 6.19677 12.9938 6.19677C17.0978 6.19677 20.99 9.05447 20.99 13.1088C20.99 17.1463 17.0978 20.9914 12.9938 21.0083ZM12.9938 0.27218C5.29673 0.27218 0.0170289 5.50484 0 13.1088C0 20.7128 5.29673 26.916 12.9938 26.9328C20.6909 26.9328 26.9701 20.7128 26.9871 13.1088C26.9701 5.50484 20.6738 0.27218 12.9938 0.27218Z" fill="white"/>
</svg>
