<svg width="154" height="107" viewBox="0 0 154 107" fill="none" xmlns="http://www.w3.org/2000/svg">
<path d="M98.8021 -8.38941C95.8467 -16.5894 88.8857 -22.6368 79.5412 -23.7841C72.0893 -24.6991 64.8456 -22.795 59.7188 -18.1997C54.9899 -13.9118 47.9718 -2.7641 44.0312 2.92679C43.1357 0.441929 42.0782 -2.24398 41.0322 -5.45977C40.3445 -7.68162 40.1639 -11.2621 39.1466 -14.7119C35.9589 -25.9091 22.9128 -31.017 12.3339 -26.0224L11.3416 -26.1442C3.16816 -22.1605 -0.921217 -13.0281 1.60752 -4.28677C4.12188 4.57157 6.79987 13.9412 8.74142 19.6418C11.3707 27.5643 13.9921 34.4615 16.3603 39.6208C19.6528 47.031 26.9893 52.9534 35.7424 54.0281C43.4309 54.9721 50.623 51.5321 55.8073 46.4689C56.8972 45.4152 57.6835 44.0627 59.3902 41.8973C61.3909 39.2931 64.6663 33.8566 68.0332 28.9265C68.5164 31.8357 69.4498 35.1524 69.9187 38.1786C71.3255 47.2572 71.7676 53.5407 74.7045 64.8258C77.147 74.269 84.3031 82.041 94.5939 83.3045C103.11 84.3502 111.702 81.0296 116.764 75.0016C117.603 74.0359 118.356 71.9808 120.59 68.4552C124.617 62.0625 127.63 56.5837 132.066 48.8162C132.199 48.7138 132.926 49.0405 133.058 48.9381C133.799 53.6601 134.325 58.7181 135.087 65.2238C135.849 71.7296 136.624 80.0343 137.26 88.5433C138.215 99.3475 148.383 107.793 159.255 106.278C169.285 104.779 176.116 95.1517 174.943 85.1518C173.175 70.2104 171.364 54.1587 170.498 47.5214C168.81 33.8959 167.581 27.1737 165.955 18.8994C165.053 14.5138 164.051 9.42159 163.32 7.55069C160.217 -0.429905 152.175 -6.84754 143.067 -7.96586C135.26 -8.92441 128.082 -5.60132 123.002 -0.406614C121.632 0.968903 120.404 2.60932 118.184 6.01788C114.229 11.8258 109.589 19.4133 105.595 26.5225C105.369 25.4261 105.192 24.5348 104.966 23.4384C103.455 14.2283 101.31 -1.43182 98.8021 -8.38941Z" fill="#F91155"/>
</svg>
