<svg width="239" height="28" viewBox="0 0 239 28" fill="none" xmlns="http://www.w3.org/2000/svg">
<path d="M222.672 1.45356C225.168 -0.0405273 228.31 -0.185356 231.06 0.617809C233.789 1.41113 236.045 3.49172 237.214 6.06429C235.944 6.76994 234.686 7.49485 233.422 8.20692C232.718 6.61343 231.415 5.21551 229.701 4.73806C228.07 4.29165 226.162 4.31299 224.735 5.31828C223.335 6.29399 223.053 8.59293 224.333 9.77907C225.297 10.6801 226.589 11.0939 227.808 11.5336C229.903 12.1936 231.998 12.8746 234.002 13.7837C236.193 14.872 237.99 17.0765 238.013 19.6068V19.6377C237.965 20.7994 237.889 21.9853 237.42 23.0657C236.405 25.5144 233.947 27.0964 231.415 27.6031C228.518 28.1718 225.4 27.9682 222.708 26.6973C220.448 25.6447 218.658 23.6473 217.879 21.2766C219.186 20.5485 220.45 19.742 221.783 19.0592C222.394 20.9003 223.797 22.5247 225.675 23.126C227.244 23.636 228.956 23.6782 230.563 23.3165C231.633 23.0657 232.704 22.4611 233.186 21.4298C233.668 20.3415 233.571 18.9192 232.692 18.0558C232.047 17.448 231.219 17.0863 230.411 16.754C227.715 15.654 224.748 15.2126 222.246 13.6517C220.67 12.8079 219.473 11.2649 219.165 9.49077C218.874 7.75718 218.98 5.88195 219.834 4.3113C220.468 3.09909 221.522 2.16394 222.672 1.45356ZM0.399536 0.625921C2.00264 0.616121 3.60592 0.620996 5.2092 0.622686C7.05328 7.43943 8.8995 14.2546 10.7585 21.0681C12.7476 14.2529 14.716 7.43132 16.7132 0.619307C18.2041 0.624231 19.6948 0.619305 21.1857 0.620995C23.1635 7.47694 25.1594 14.3263 27.1487 21.179C29.0207 14.3296 30.8601 7.47033 32.7323 0.620995C34.3337 0.620995 35.9353 0.620995 37.5352 0.620995C35.1091 9.54112 32.6963 18.4629 30.2687 27.3817C28.4178 27.3798 26.5671 27.3832 24.7162 27.3817C22.7937 20.7555 20.8694 14.1307 18.9503 7.50465C17.0066 14.1243 15.102 20.757 13.1696 27.3817C11.3317 27.3832 9.49406 27.3798 7.65639 27.3817C5.23522 18.4646 2.81729 9.546 0.399536 0.625921ZM40.7514 0.622686C42.2715 0.619307 43.7914 0.620996 45.3116 0.622686C45.3148 9.54112 45.3133 18.4614 45.3133 27.3817C43.7914 27.3817 42.2715 27.3832 40.7497 27.3798C40.7514 18.4614 40.7497 9.54112 40.7514 0.622686ZM50.5269 0.622686C52.021 0.620996 53.5132 0.620996 55.0074 0.622686C55.0088 8.13016 55.0074 15.6378 55.0074 23.1454C58.6879 23.1472 62.3666 23.1438 66.0457 23.1454C66.0457 24.5581 66.0457 25.9689 66.0457 27.3817C60.8724 27.3817 55.6982 27.3832 50.525 27.3798C50.5269 18.4614 50.525 9.54112 50.5269 0.622686ZM69.2632 0.622686C72.5122 0.617811 75.7607 0.624231 79.0097 0.619307C81.2593 0.620996 83.5664 0.873529 85.6095 1.87882C88.3954 3.23924 90.6374 5.66355 91.8592 8.50507C93.0343 11.3203 93.2018 14.5103 92.5274 17.4693C91.8206 20.5533 89.8915 23.2937 87.345 25.1414C85.2609 26.6419 82.6883 27.3555 80.1369 27.3817C76.5119 27.3798 72.8868 27.3832 69.2618 27.3798C69.2632 18.4614 69.2618 9.54112 69.2632 0.622686ZM73.7862 4.937C73.7828 11.0205 73.7843 17.1027 73.7843 23.1862C75.9548 23.1798 78.1248 23.1992 80.2933 23.1749C82.3837 23.1244 84.4885 22.3357 85.9353 20.796C87.4425 19.3168 88.3269 17.2752 88.5094 15.1834C88.7884 12.5423 88.1381 9.70251 86.3104 7.71151C84.8356 5.96021 82.5724 4.96452 80.2967 4.9385C78.1267 4.9385 75.9562 4.94019 73.7862 4.937ZM97.0436 0.622686C100.692 0.627611 104.341 0.608011 107.989 0.632341C110.053 0.651941 112.095 1.45998 113.579 2.90184C115.985 5.08671 116.448 9.04422 114.706 11.7618C114.262 12.4331 113.688 13.0147 113.04 13.4871C114.343 14.2154 115.494 15.2729 116.129 16.6431C117.12 18.7578 117.022 21.3596 115.891 23.4012C114.487 25.8076 111.767 27.367 108.981 27.3817C105.001 27.3817 101.022 27.3832 97.0421 27.3817C97.0421 18.4614 97.0407 9.54112 97.0436 0.622686ZM101.511 4.83253C101.536 7.14615 101.518 9.46132 101.519 11.775C103.627 11.7897 105.738 11.775 107.846 11.7831C109.165 11.8155 110.423 10.9636 110.954 9.76777C111.497 8.5603 111.318 7.04526 110.458 6.03016C109.82 5.26113 108.83 4.79517 107.831 4.81308C105.725 4.82949 103.618 4.79348 101.511 4.83253ZM101.521 15.8154C101.524 18.3 101.521 20.783 101.523 23.2677C103.74 23.2692 105.956 23.266 108.173 23.2692C109.09 23.2613 110.045 23.095 110.798 22.5345C112.35 21.4624 112.784 19.1539 111.788 17.5653C111.146 16.4802 109.908 15.7813 108.647 15.8122C106.272 15.8172 103.896 15.8106 101.521 15.8154ZM120.994 0.622686C126.409 0.620996 131.827 0.620996 137.242 0.622686C137.244 2.03345 137.246 3.4461 137.242 4.85875C133.306 4.85701 129.37 4.85701 125.432 4.85701C125.43 7.15277 125.432 9.44664 125.432 11.7407C129.044 11.7407 132.654 11.7392 136.266 11.7407C136.266 13.1533 136.266 14.5641 136.266 15.9767C132.654 15.9767 129.044 15.9767 125.432 15.9767C125.432 18.3667 125.432 20.7555 125.432 23.1454C129.438 23.1472 133.443 23.1421 137.449 23.1472C137.448 24.5581 137.448 25.9689 137.449 27.3798C131.963 27.3832 126.478 27.3817 120.992 27.3817C120.992 18.4614 120.99 9.54112 120.994 0.622686ZM141.398 0.620995C144.17 0.620995 146.942 0.620995 149.713 0.620995C151.335 0.647209 152.989 0.505424 154.579 0.914225C156.589 1.40644 158.3 2.75382 159.497 4.41234C160.865 6.31359 161.29 8.82263 160.774 11.0922C160.171 13.7464 158.183 16.0321 155.638 16.9999C157.678 20.4637 159.731 23.9211 161.783 27.3783C160.129 27.3864 158.475 27.3751 156.821 27.3847C154.907 24.1442 152.984 20.9068 151.085 17.6565C149.349 17.6354 147.613 17.6499 145.878 17.6499C145.887 20.8889 145.866 24.128 145.889 27.367C144.392 27.3996 142.894 27.3734 141.398 27.3817C141.398 18.4614 141.397 9.54112 141.398 0.620995ZM145.879 4.81651C145.878 7.77659 145.879 10.7356 145.879 13.6958C148.087 13.6908 150.294 13.7072 152.502 13.6877C154.719 13.5801 156.502 11.4751 156.435 9.29028C156.518 7.09073 154.726 4.9287 152.484 4.82119C150.283 4.80989 148.082 4.8195 145.879 4.81651ZM165.146 0.622686C168.149 0.619307 171.152 0.620995 174.155 0.620995C175.465 0.634029 176.794 0.538059 178.081 0.845818C180.232 1.30516 182.07 2.74079 183.311 4.51985C184.699 6.53836 185.05 9.18769 184.386 11.5304C183.683 14.007 181.752 16.0646 179.364 17.0048C181.424 20.4573 183.456 23.9275 185.517 27.3817C183.847 27.3798 182.179 27.3832 180.51 27.3798C178.609 24.1344 176.708 20.8872 174.8 17.645C173.062 17.6467 171.323 17.6467 169.586 17.645C169.581 20.8906 169.586 24.1361 169.584 27.3817C168.104 27.3817 166.624 27.3817 165.145 27.3817C165.145 18.4614 165.143 9.54112 165.146 0.622686ZM169.586 4.77407C169.581 7.74733 169.586 10.7223 169.584 13.6958C171.761 13.6908 173.938 13.7039 176.115 13.6892C177.605 13.6468 178.99 12.702 179.663 11.3856C180.579 9.64709 180.245 7.32212 178.793 5.97474C177.969 5.13575 176.779 4.74631 175.619 4.77557C173.607 4.77407 171.596 4.77726 169.586 4.77407ZM188.686 27.3798C188.704 18.455 188.657 9.52978 188.71 0.606321C190.195 0.640646 191.682 0.611197 193.168 0.622686C193.17 9.54112 193.167 18.4614 193.17 27.3798C191.674 27.3832 190.18 27.3832 188.686 27.3798ZM198.383 0.622686C203.814 0.620996 209.244 0.619307 214.674 0.622686C214.674 2.03345 214.674 3.4461 214.674 4.85701C210.736 4.85875 206.798 4.85532 202.862 4.85875C202.86 7.15277 202.862 9.4451 202.86 11.7392C206.472 11.7439 210.084 11.7375 213.698 11.7422C213.696 13.1533 213.695 14.5641 213.698 15.975C210.086 15.9799 206.474 15.9735 202.862 15.9784C202.862 18.3667 202.862 20.7555 202.862 23.1438C206.854 23.1487 210.846 23.1421 214.839 23.1472C214.837 24.5581 214.837 25.9689 214.839 27.3798C209.353 27.3832 203.867 27.3817 198.382 27.3817C198.382 18.4614 198.38 9.54112 198.383 0.622686Z" fill="white"/>
</svg>
