<svg width="239" height="28" viewBox="0 0 239 28" fill="none" xmlns="http://www.w3.org/2000/svg">
<path d="M222.815 2.39504C225.308 0.939123 228.06 0.637945 230.808 1.42059C233.535 2.19364 235.636 4.76045 236.803 7.2673C235.534 7.95492 235.069 8.52232 233.805 9.2162C233.102 7.66342 231.521 5.78365 229.809 5.3184C228.179 4.88339 226.239 5.31323 224.813 6.29285C223.415 7.24362 222.535 9.03482 223.814 10.1907C224.777 11.0687 226.592 11.711 227.81 12.1396C229.904 12.7827 231.803 13.2025 233.805 14.0885C235.995 15.1489 237.779 17.4695 237.802 19.9352C237.753 21.0671 238.271 22.7802 237.802 23.833C236.788 26.2191 234.337 27.237 231.807 27.7308C228.913 28.285 225.504 27.9947 222.815 26.7563C220.557 25.7306 218.597 24.1941 217.819 21.8841C219.124 21.1746 220.484 20.6005 221.815 19.9352C222.426 21.7292 223.935 23.247 225.812 23.833C227.38 24.3299 229.203 24.1854 230.808 23.833C231.877 23.5886 232.324 22.8891 232.806 21.8841C233.288 20.8236 233.684 19.8021 232.806 18.9607C232.162 18.3684 231.615 17.3356 230.808 17.0118C228.114 15.9399 224.316 15.6094 221.815 14.0885C220.241 13.2662 219.126 11.9195 218.818 10.1907C218.528 8.50136 218.964 6.84892 219.817 5.3184C220.45 4.13716 221.665 3.08727 222.815 2.39504ZM1 1.42059C2.60176 1.41104 3.39472 1.41894 4.99666 1.42059C6.83921 8.06318 9.13424 15.2446 10.9916 21.8841C12.9791 15.243 14.9911 8.05857 16.9866 1.42059C18.4763 1.42539 19.4936 1.41894 20.9833 1.42059C22.9594 8.10137 24.9906 15.2064 26.9783 21.8841C28.8488 15.2097 31.1026 8.09493 32.9733 1.42059C34.5733 1.42059 36.3705 1.42059 37.9691 1.42059C35.5451 10.1128 32.4013 19.0398 29.9758 27.7308C28.1264 27.7289 26.8293 27.7322 24.98 27.7308C23.059 21.2738 20.9025 14.6985 18.985 8.24175C17.0429 14.6923 14.9207 21.2753 12.99 27.7308C11.1536 27.7322 9.83029 27.7289 7.99415 27.7308C5.575 19.0415 3.41573 10.1128 1 1.42059ZM40.9666 1.42059C42.4854 1.4173 43.4444 1.41894 44.9632 1.42059C44.9664 10.1112 44.9632 19.0384 44.9632 27.7308C43.4427 27.7308 42.4871 27.7341 40.9666 27.7308C40.9683 19.0402 40.9649 10.1112 40.9666 1.42059ZM50.9582 1.42059C52.4511 1.41894 53.462 1.41894 54.9549 1.42059C54.9563 8.73626 54.9549 16.5172 54.9549 23.833C58.6324 23.8347 62.2697 23.8313 65.9457 23.833C65.9457 25.2095 65.9457 26.354 65.9457 27.7308C60.7768 27.7308 56.1272 27.7341 50.9582 27.7308C50.9602 19.0402 50.9563 10.1112 50.9582 1.42059ZM68.9432 1.42059C72.1895 1.41584 75.6886 1.42539 78.9348 1.42059C81.1826 1.42224 83.8877 1.41543 85.929 2.39504C88.7127 3.7207 90.7031 6.44728 91.924 9.2162C93.098 11.9595 93.597 15.1029 92.9231 17.9863C92.217 20.9915 89.4726 23.9814 86.9282 25.7819C84.8458 27.244 82.4833 27.7052 79.934 27.7308C76.312 27.7289 72.5652 27.7341 68.9432 27.7308C68.9446 19.0402 68.9417 10.1112 68.9432 1.42059ZM73.939 6.29285C73.9356 12.2209 73.939 17.9049 73.939 23.833C76.1077 23.8267 77.7673 23.8567 79.934 23.833C82.0226 23.7837 84.4834 22.41 85.929 20.9096C87.4349 19.4682 88.7442 18.0758 88.9265 16.0374C89.2053 13.4638 87.7552 10.1819 85.929 8.24175C84.4554 6.53519 82.2078 6.3182 79.934 6.29285C77.7658 6.29285 76.1072 6.29595 73.939 6.29285ZM96.9198 1.42059C100.565 1.42539 104.265 1.39688 107.911 1.42059C109.973 1.43969 112.422 1.96448 113.906 3.36949C116.31 5.49854 116.645 9.49139 114.905 12.1396C114.461 12.7937 113.554 13.6281 112.906 14.0885C114.209 14.7981 115.269 15.6766 115.904 17.0118C116.894 19.0725 117.034 21.8436 115.904 23.833C114.501 26.1779 111.693 27.7164 108.91 27.7308C104.933 27.7308 100.897 27.7322 96.9198 27.7308C96.9198 19.0384 96.9169 10.1112 96.9198 1.42059ZM101.916 5.3184C101.94 7.5729 101.914 9.885 101.916 12.1396C104.022 12.1539 105.804 12.1317 107.911 12.1396C109.229 12.1712 110.378 11.3559 110.908 10.1907C111.45 9.01402 111.768 8.25646 110.908 7.2673C110.271 6.51791 108.909 5.30094 107.911 5.3184C105.806 5.33439 104.021 5.28034 101.916 5.3184ZM101.916 16.0374C101.919 18.4584 101.914 21.4118 101.916 23.833C104.131 23.8344 105.695 23.8298 107.911 23.833C108.827 23.8252 110.156 23.4047 110.908 22.8585C112.459 21.8138 112.902 19.5342 111.907 17.9863C111.266 16.9289 110.17 16.0072 108.91 16.0374C106.537 16.0422 104.289 16.0326 101.916 16.0374ZM120.9 1.42059C126.311 1.41894 131.475 1.41894 136.886 1.42059C136.888 2.79531 136.89 3.94184 136.886 5.3184C132.953 5.3167 129.83 5.3184 125.896 5.3184C125.894 7.5555 125.896 9.90414 125.896 12.1396C129.505 12.1396 132.278 12.1381 135.887 12.1396C135.887 13.5161 135.887 15.6353 135.887 17.0118C132.278 17.0118 129.505 17.0118 125.896 17.0118C125.896 19.3408 125.896 21.504 125.896 23.833C129.899 23.8347 133.883 23.828 137.886 23.833C137.884 25.2078 137.884 26.3559 137.886 27.7308C132.405 27.7341 126.381 27.7308 120.9 27.7308C120.9 19.0384 120.896 10.1112 120.9 1.42059ZM140.883 1.42059C143.652 1.42059 147.107 1.42059 149.876 1.42059C151.497 1.44613 153.282 1.99669 154.871 2.39504C156.88 2.87469 158.672 3.70225 159.867 5.3184C161.234 7.17107 161.382 9.92799 160.866 12.1396C160.264 14.7259 158.414 17.0432 155.871 17.9863C157.909 21.3616 159.815 24.3619 161.866 27.7308C160.212 27.7387 158.522 27.7214 156.87 27.7308C154.957 24.573 152.773 21.1535 150.875 17.9863C149.141 17.9657 147.612 17.9863 145.879 17.9863C145.889 21.1425 145.856 24.5745 145.879 27.7308C144.383 27.7626 142.377 27.7227 140.883 27.7308C140.883 19.0384 140.882 10.1128 140.883 1.42059ZM145.879 5.3184C145.877 8.20285 145.879 11.2038 145.879 14.0885C148.085 14.0835 150.667 14.1074 152.873 14.0885C155.088 13.9836 156.936 12.3197 156.87 10.1907C156.953 8.0473 155.113 5.42316 152.873 5.3184C150.673 5.30739 148.08 5.32131 145.879 5.3184ZM164.863 1.42059C167.863 1.4173 170.855 1.42059 173.855 1.42059C175.165 1.43329 176.566 1.1207 177.852 1.42059C180.001 1.8682 181.608 3.58479 182.848 5.3184C184.235 7.28534 184.51 9.85668 183.847 12.1396C183.144 14.5529 181.238 17.0701 178.851 17.9863C180.91 21.3506 183.786 24.3648 185.845 27.7308C184.177 27.7289 182.517 27.7341 180.85 27.7308C178.95 24.5683 176.761 21.1456 174.855 17.9863C173.118 17.9879 171.594 17.9879 169.859 17.9863C169.854 21.1489 169.861 24.5681 169.859 27.7308C168.379 27.7308 166.341 27.7308 164.863 27.7308C164.863 19.0384 164.86 10.1112 164.863 1.42059ZM169.859 5.3184C169.854 8.21569 169.861 11.1909 169.859 14.0885C172.034 14.0835 173.679 14.1028 175.854 14.0885C177.343 14.0472 179.178 13.4224 179.85 12.1396C180.765 10.4455 180.302 8.58025 178.851 7.2673C178.028 6.44975 177.013 5.28989 175.854 5.3184C173.843 5.31694 171.867 5.3215 169.859 5.3184ZM188.843 27.7308C188.861 19.034 188.789 10.1161 188.843 1.42059C190.326 1.45404 191.355 1.40939 192.84 1.42059C192.841 10.1112 192.837 19.0402 192.84 27.7308C191.345 27.7341 190.336 27.7341 188.843 27.7308ZM197.835 1.42059C203.261 1.41894 209.396 1.4173 214.821 1.42059C214.821 2.79531 214.821 3.94353 214.821 5.3184C210.887 5.32009 206.764 5.31506 202.831 5.3184C202.83 7.55381 202.833 9.90409 202.831 12.1396C206.44 12.1442 210.211 12.135 213.822 12.1396C213.82 13.5147 213.819 15.6369 213.822 17.0118C210.213 17.0166 206.441 17.0071 202.831 17.0118C202.831 19.3391 202.831 21.5057 202.831 23.833C206.82 23.8378 210.832 23.828 214.821 23.833C214.82 25.2078 214.82 26.3559 214.821 27.7308C209.34 27.7341 203.316 27.7308 197.835 27.7308C197.835 19.0384 197.832 10.1112 197.835 1.42059Z" fill="white"/>
</svg>
