<svg width="167" height="32" viewBox="0 0 167 32" fill="none" xmlns="http://www.w3.org/2000/svg">
<path d="M78.1 27H81.4L86 9.90002V27H89.7V4.40002H84.6L80 21L75.4 4.40002H70.2V27H73.4V9.90002L78.1 27ZM105.2 15.8C105.2 11.8 103.2 10.3 99.1 10.3C96.5 10.3 94.5 11.1 93.3 11.8V15C94.3 14.2 96.6 13.4 98.6 13.4C100.5 13.4 101.3 14.1 101.3 15.8V16.7H100.7C94.8 16.7 92.1 18.7 92.1 22C92.1 25.3 94.1 27.2 97.1 27.2C99.4 27.2 100.4 26.5 101.1 25.7H101.3C101.3 26.1 101.5 26.7 101.6 27H105.4C105.3 25.7 105.2 24.3 105.2 23V15.8ZM101.3 23.1C100.8 23.8 99.9 24.4 98.5 24.4C96.9 24.4 96.1 23.4 96.1 22C96.1 20.1 97.4 19.4 100.8 19.4H101.4V23.1H101.3ZM111.9 10.6H108.3V31.7H112.2V25.1C113.2 26.6 114.6 27.3 116.3 27.3C120.1 27.3 122.7 24.3 122.7 18.8C122.7 13.3 120.2 10.3 116.5 10.3C114.7 10.3 113.2 11.1 112.1 12.7L111.9 10.6ZM115.2 24.3C113.2 24.3 112.1 22.6 112.1 18.9C112.1 15.1 113.2 13.4 115.4 13.4C117.5 13.4 118.6 15.1 118.6 18.8C118.6 22.6 117.5 24.3 115.2 24.3ZM134.8 27H139.2L133 18.2L138.5 10.6H134.6L129.1 18.2V10.6H125.2V27H129.1V19L134.8 27ZM152.2 25.9V22.7C151 23.5 149 24.2 147.1 24.2C144.3 24.2 143.2 22.9 143 20.1H152.3V18C152.3 12.3 149.8 10.2 145.9 10.2C141.2 10.2 138.9 13.8 138.9 18.8C138.9 24.5 141.7 27.3 146.6 27.3C149.3 27.3 151.1 26.7 152.2 25.9ZM145.9 13.4C147.8 13.4 148.4 15 148.4 17V17.3H143C143.1 14.7 144.1 13.4 145.9 13.4ZM166.2 13.7V10.6H153.2V13.7H157.8V27H161.7V13.7H166.2Z" fill="black"/>
<path d="M47.1 31C55.4 31 62.1 24.3 62.1 16C62.1 7.7 55.4 1 47.1 1C38.8 1 32.1 7.7 32.1 16C32 24.3 38.8 31 47.1 31Z" fill="black"/>
<path d="M15 31C23.2843 31 30 24.2843 30 16C30 7.71573 23.2843 1 15 1C6.71573 1 0 7.71573 0 16C0 24.2843 6.71573 31 15 31Z" fill="#FC3F1D"/>
<path d="M17.2 9.4H15.7C13.1 9.4 11.8 10.7 11.8 12.7C11.8 14.9 12.7 16 14.6 17.3L16.1 18.4L11.8 25.1H8.30005L12.4 19C10 17.3 8.70005 15.7 8.70005 12.9C8.70005 9.4 11.1 7 15.7 7H20.3V25H17.3V9.4H17.2Z" fill="white"/>
<mask id="mask0_9_2458" style="mask-type:alpha" maskUnits="userSpaceOnUse" x="32" y="1" width="31" height="30">
<path d="M47.1 31C55.4 31 62.1 24.3 62.1 16C62.1 7.7 55.4 1 47.1 1C38.8 1 32.1 7.7 32.1 16C32 24.3 38.8 31 47.1 31Z" fill="#FED42B"/>
</mask>
<g mask="url(#mask0_9_2458)">
<path d="M39.7 9.19998L26.5 26.5L30 30.5L39.8 17.5L38.8 24.6L44.3 26.5L51 15.8C50.7 17.8 50.2 22.4 54.6 23.8C61.5 25.9 67.5 13.5 70.3 7.19998L66.3 5.09998C63.2 11.6 58.4 18.8 56.5 18.3C54.6 17.8 56.3 11.7 57.4 7.79998V7.69998L51.3 5.59998L44 17.5L45 11L39.7 9.19998Z" fill="#FED42B"/>
</g>
</svg>
